<svg xmlns="http://www.w3.org/2000/svg" viewBox="0 0 1024 1024" role="img" aria-labelledby="title desc">
<title id="title">ZeroAny Pane technology icon</title><desc id="desc">A segmented zero pane core, a one signal, and six data channels</desc>
<rect x="28" y="28" width="968" height="968" rx="230" fill="#14182A"/>
<rect x="52" y="52" width="920" height="920" rx="208" fill="none" stroke="#29304A" stroke-width="6"/>
<g fill="none" stroke-linecap="square" stroke-linejoin="round">
  <g stroke="#070A14" stroke-width="92"><path d="M358 388L266 296L142 234"/><path d="M666 388L758 296L882 234"/><path d="M324 512H118"/><path d="M700 512H906"/><path d="M358 636L266 728L142 790"/><path d="M666 636L758 728L882 790"/></g>
  <g stroke="#7A849F" stroke-width="48"><path d="M358 388L266 296L142 234"/><path d="M666 388L758 296L882 234"/><path d="M324 512H118"/><path d="M700 512H906"/><path d="M358 636L266 728L142 790"/><path d="M666 636L758 728L882 790"/></g>
</g>
<g fill="#222943" stroke="#FF8A68" stroke-width="22"><rect x="104" y="196" width="76" height="76" rx="20"/><rect x="844" y="196" width="76" height="76" rx="20"/><rect x="80" y="474" width="76" height="76" rx="20"/><rect x="868" y="474" width="76" height="76" rx="20"/><rect x="104" y="752" width="76" height="76" rx="20"/><rect x="844" y="752" width="76" height="76" rx="20"/></g>
<circle cx="512" cy="512" r="238" fill="#101423" stroke="#070A14" stroke-width="146"/>
<circle cx="512" cy="512" r="238" fill="none" stroke="#F4EFE7" stroke-width="104" stroke-dasharray="332 42" stroke-dashoffset="18"/>
<circle cx="512" cy="512" r="150" fill="#191F35" stroke="#303954" stroke-width="8"/>
<path d="M512 668V340L458 396" fill="none" stroke="#070A14" stroke-width="112" stroke-linecap="square" stroke-linejoin="round"/>
<path d="M512 668V340L458 396" fill="none" stroke="#FF8A68" stroke-width="68" stroke-linecap="square" stroke-linejoin="round"/>
<rect x="478" y="634" width="68" height="68" rx="18" fill="#63D4B1" stroke="#070A14" stroke-width="18"/>
</svg>
